/* XPM */
static char *_509a6f207804f498f688a564dfc6fedvbXvYAk255BG0Wr6[] = {
/* columns rows colors chars-per-pixel */
"32 32 62 1 ",
"  c None",
". c black",
"X c #201400",
"o c #201503",
"O c #261800",
"+ c #2B1B00",
"@ c #2F1E00",
"# c #301E00",
"$ c #201D10",
"% c #201D11",
"& c #201D15",
"* c #202020",
"= c #383836",
"- c #402800",
"; c #523603",
": c #55461D",
"> c #6B4909",
", c #BF7B03",
"< c #BC8010",
"1 c #BA8A24",
"2 c #DF9105",
"3 c #CF8D12",
"4 c #CF9016",
"5 c #CD931F",
"6 c #DF9D1B",
"7 c #FFA200",
"8 c #FFAE16",
"9 c #FFB11B",
"0 c #CF9926",
"q c #CF9933",
"w c #DFA224",
"e c #FFBB2D",
"r c #E7AE31",
"t c #CFBD68",
"y c #CFC576",
"u c #E3CC6C",
"i c #F7D362",
"p c #FFD964",
"a c #FBDC6E",
"s c #FFDE6E",
"d c #FFDF6E",
"f c #FFE376",
"g c #A8A088",
"h c gray75",
"j c #CFC787",
"k c #F7E482",
"l c #FFE484",
"z c #FFE880",
"x c #FFF18F",
"c c #FFEA90",
"v c #FFF392",
"b c #C7C4B3",
"n c #EFE5A8",
"m c #FFF4A0",
"M c #FFF5A2",
"N c #FFF5A6",
"B c #FFF7B4",
"V c gray81",
"C c #FFFAD6",
"Z c #FFFBDA",
"A c #FFFDEA",
"S c white",
/* pixels */
"                                ",
"                                ",
"                                ",
"                                ",
"                                ",
"                                ",
"                                ",
"                                ",
"              ....              ",
"            *=gq3<;o            ",
"           .hbnlsi0,.           ",
"           .SBMZvxs8.           ",
"          *VvMCNvesv7@          ",
"          &jvMCNvesv7@          ",
"          %yvMCNvesv7@          ",
"          %yvMCNvesv7@          ",
"          %yvMCNvesv7@          ",
"          %yvMCNvesv7@          ",
"          %tvMCNvesv7@          ",
"          o4vMCNvesv7@          ",
"           .vvMA7fz9.           ",
"           .6ukcpar2.           ",
"            -:1ww5>-            ",
"              O##+              ",
"                                ",
"                                ",
"                                ",
"                                ",
"                                ",
"                                ",
"                                ",
"                                "
};
