/* XPM */
static char *_88a3b3064e348e8833bf3e51b6a24d9uBtInUeDCP1Ymk2w[] = {
/* columns rows colors chars-per-pixel */
"32 32 114 2 ",
"   c #751D1D",
".  c gray31",
"X  c #545554",
"o  c #5D5E5D",
"O  c #7A4C51",
"+  c #7D5454",
"@  c #7E5558",
"#  c #636463",
"$  c #6C6D6C",
"%  c #6C736C",
"&  c #6E6E75",
"*  c #747474",
"=  c #767876",
"-  c #717279",
";  c #77797D",
":  c #7B7B7C",
">  c #961C1C",
",  c #9C3122",
"<  c #843934",
"1  c #B12B24",
"2  c #B92E22",
"3  c #B43331",
"4  c #A74E4E",
"5  c #867070",
"6  c #9E7B72",
"7  c #E47776",
"8  c #E5797A",
"9  c #7E817F",
"0  c #7D7D81",
"q  c #7D8383",
"w  c #7F8888",
"e  c #838483",
"r  c #848B85",
"t  c #848B8A",
"y  c #8B8C8B",
"u  c #8C938D",
"i  c #92928F",
"p  c #8D8F91",
"a  c #8D9291",
"s  c #929493",
"d  c #949A94",
"f  c #9A9A92",
"g  c #94969A",
"h  c #969A9A",
"j  c #9B9D9B",
"k  c #9EA29D",
"l  c #A2A29C",
"z  c #9D9EA3",
"x  c #9EA3A3",
"c  c #A3A4A4",
"v  c #A6ABA5",
"b  c #AAABA6",
"n  c #A2A2A9",
"m  c #A5AAA9",
"M  c #ACACAC",
"N  c #AEB0A7",
"B  c #ADB1AC",
"V  c #B3B3AC",
"C  c #BABAAF",
"Z  c #AAADB1",
"A  c #ADB3B3",
"S  c #B2B5B3",
"D  c #B4BBB4",
"F  c #B5BAB6",
"G  c #B5BDB5",
"H  c #B7BDB6",
"J  c #B9B9B3",
"K  c #BBBBB4",
"L  c #BCBCB7",
"P  c #B5BAB8",
"I  c #B7BDBA",
"U  c gray73",
"Y  c #B8BEBA",
"T  c #BDBEBB",
"R  c gray75",
"E  c #B7C0B5",
"W  c #BAC3B4",
"Q  c #BBC3B5",
"!  c #BEC5B6",
"~  c #BCC1B9",
"^  c #BFC2B9",
"/  c #BDC2BB",
"(  c #BDC2BC",
")  c #BFC4BE",
"_  c #C1C4B6",
"`  c #C4C4B6",
"'  c #C4C8B7",
"]  c #C1C2B8",
"[  c #C2C2B9",
"{  c #C1C1BA",
"}  c #C3C5B9",
"|  c #C2C6BB",
" . c #C5C6BA",
".. c #C5C6BF",
"X. c #C6C8BB",
"o. c #C9CABB",
"O. c #C8C9BC",
"+. c #C8CCBD",
"@. c #CBCCBC",
"#. c #C3C3C3",
"$. c #C6C6C6",
"%. c #C5C8C0",
"&. c #C4C8C1",
"*. c #CBCCC2",
"=. c #CCCEC1",
"-. c #CCCFC5",
";. c #CFD0C2",
":. c #CED1C4",
">. c #D2D3C4",
",. c #D5D5C7",
"<. c #D2D4C8",
"1. c #D6D6C8",
"2. c #D9D9CA",
"3. c #DBDBCC",
/* pixels */
"j S F F F $.$.M c U F $.U $.R R R $.$.R F $.$.U s e #.#.F $.$.j ",
"* * * * * * * * * * * * * * * * * * * * * * * * * * * * * * * * ",
"S r d d y # n n n n n n n n n J l n n n n n n n n n e s v M $ % ",
"F : e e q o n r q t ; = : - T L j ! - ; t q - t y n e q j j $ : ",
"#.r t t s # n y s j ,.1.;.o.~ ~ l S ` O.1.1.{ m I n : d M M $ * ",
"R r r t s # n y h ( Q F G A Q %.f Z F A Z A A { F n : s M M $ * ",
"R : r t u # n 0 <.A a y ) Q A %.j A S A y y Z x Y n : u M M $ * ",
"S : h h q $ n } 2.A y L A h e >.l t t G @.x *.G -.n e e R R $ = ",
"c e h h e # n A Z A y v A y x ,.s B g  .A h >.A Z n * e R R $ % ",
"F 9 s s : # n g  .G J s c e %.~ l F v M e F ! m M n e q F F $ $ ",
"U : d h r $ n 0 O.S S } l j A ;.f S F e { P Z z S n e y U R $ : ",
"M e s h e # n s X.G d g M s j K f n y S a y G B F n * e U R $ * ",
"F 9 u u : # n s :.Z s L F S J b V V V F } y @.m S n e q S S $ $ ",
"M e s d e o n y X.A x ..v c 6 2 1 < C v A t =.v F n e r M M $ $ ",
"R 9 q q r o n e O.A G S x j 4 8 7 > l 0 Z %.} x B n : u c c $ * ",
"S r u a r # n N =.F S A l l O , 3   j 0 F A S M { n 0 t S F $ $ ",
"c q u u : o n G A M A F Z p v @ + 5 i n S A S A Z n e q M M $ $ ",
"R e q q y o n E A X.e m Q h p l C i l Y S y k A m n : u c c $ * ",
"S r a a t # n y  .>.A y g y %.J f m e l s m ( v k n 0 u F F $ * ",
"S : r t r # n q O.Z  .~ F C F { l S b j S } { x M n e t M M $ * ",
"S r a a r # n y X.A A A :.v A %.l Q ~ j S S S v F n : t F F $ * ",
"U 9 u u y o n y =.F F h e v S %.l A Q e r x G v M n e y M M $ * ",
"#.e q r u o n s X.A r C a M A L v Z n l j v A B F n : u m M $ = ",
"M r d d u # n q O.A y  .y { A *.B A s b j j *.x S n 0 u U U $ * ",
"M : u u : o n s =.S y G y F B %.j G d Y n e  .m V n e q M B $ * ",
"#.e q r u o n G S S y } y A y  .f a c ~ x A :.A F n : u M M $ = ",
"M r d d u # n e  .G Y *.F %.v ,.c s I %.k A L c s n : u Y R $ * ",
"M : r r q # n e <.G A ~ F F G %.l F G F G ;.A v Y n e q M B $ * ",
"M r t y q o n t j g S A A Z Z %.f A Z Z Z S F e F n : q S S $ : ",
"X $ : X $ # n e j j & - - - *.;.j A & - q w 0 m I n * : X # $ . ",
"$.#.#.#.{ $ z { 1.3.>.@.3.>.@.~ j F @.3.,.@.3.3.@.z j M #.#.M M ",
": : % q # X y X F X.o._ Q o._ o.i o._ ' Q o.o.Q X u # # # : : : "
};
