/* XPM */
static char *be0ed23ab8544d39e603444dbd5cbd73v162jjUtm4OJGcsG[] = {
/* columns rows colors chars-per-pixel */
"32 32 125 2 ",
"   c None",
".  c black",
"X  c #020209",
"o  c #04040F",
"O  c #040412",
"+  c #090924",
"@  c #0A0A27",
"#  c #090929",
"$  c #0A0A2A",
"%  c #0B0B2B",
"&  c #0C0C2F",
"*  c #0A1020",
"=  c #0F142B",
"-  c #0E142E",
";  c #0C0C30",
":  c #0E0E35",
">  c #0E1531",
",  c #141545",
"<  c #131943",
"1  c #141A46",
"2  c #181B40",
"3  c #1A1D40",
"4  c #141449",
"5  c #14154B",
"6  c #16174B",
"7  c #14144F",
"8  c #14164F",
"9  c #141B49",
"0  c #161B4F",
"q  c #161C4F",
"w  c #1B1D49",
"e  c #181E4F",
"r  c #161753",
"t  c #171C53",
"y  c #17185B",
"u  c #18185F",
"i  c #1D204D",
"p  c #1F224F",
"a  c #1F2157",
"s  c #1A205F",
"d  c #1C225F",
"f  c #20234F",
"g  c #212457",
"h  c #202359",
"j  c #24275F",
"k  c #2E2EB5",
"l  c #2E2EB9",
"z  c #3038B5",
"x  c #313BB5",
"c  c #3030BF",
"v  c #333ABF",
"b  c #3C41A7",
"n  c #3B5BBF",
"m  c #3C62BF",
"M  c #59659B",
"N  c #63719B",
"B  c #4246B5",
"V  c #4247B9",
"C  c #4668BF",
"Z  c #496ABF",
"A  c #616EA8",
"S  c #6472AE",
"D  c #6B7AA8",
"F  c #6B7BA8",
"G  c #3131C3",
"H  c #3232C6",
"J  c #3434CF",
"K  c #3535CF",
"L  c #363CCF",
"P  c #373ECF",
"I  c #3838DF",
"U  c #3939DF",
"Y  c #393BDF",
"T  c #393CDF",
"R  c #3A3CDF",
"E  c #3D3EDF",
"W  c #3B43DF",
"Q  c #3C45DF",
"!  c #3C46DF",
"~  c #3C48DF",
"^  c #3F61CF",
"/  c #4144CF",
"(  c #404BDF",
")  c #4E53DF",
"_  c #4E55DF",
"`  c #5056DF",
"'  c #4063CF",
"]  c #4169CF",
"[  c #426ACF",
"{  c #4A68CF",
"}  c #4C71CF",
"|  c #4E72CF",
" . c #4F73CF",
".. c #6F7DCF",
"X. c #4141FF",
"o. c #4243FF",
"O. c #444DFF",
"+. c #4551FF",
"@. c #4655FF",
"#. c #4656FF",
"$. c #4657FF",
"%. c #4E74FF",
"&. c #4F7AFF",
"*. c #4F7BFF",
"=. c #6A81BF",
"-. c #6F84BF",
";. c #7A8CBF",
":. c #7083CF",
">. c #7788CF",
",. c #748CCF",
"<. c #7990CF",
"1. c #7B91CF",
"2. c #5181FF",
"3. c #5182FF",
"4. c #5484FF",
"5. c #5585FF",
"6. c #5686FF",
"7. c #608CFF",
"8. c #6590FF",
"9. c #6A94FF",
"0. c #6C95FF",
"q. c #8397CF",
"w. c #8497CF",
"e. c #98B3FF",
"r. c #A2BAFF",
/* pixels */
"  . . . . . . . . . . . . . . . . . . . . . . . . . . . . . .   ",
". S B @ q.,. .] ] ] ] ] ] ] ] ] ] ] ] ] ] ] ] ] ] ] ' L . A V $ ",
". :._ ; e.0.6.3.3.3.3.3.3.3.3.3.3.3.3.3.3.3.3.3.3.3.*.O.. ..) ; ",
". { ( ; 7.6.3.3.3.3.3.3.3.3.3.3.3.3.3.3.3.3.3.3.3.3.*.O.. / E ; ",
". ^ ~ ; 3.3.3.3.3.3.3.3.3.3.3.3.3.3.3.3.3.3.3.3.3.3.*.O.. K I ; ",
". ^ ~ ; 3.3.3.3.3.3.3.3.3.3.3.3.3.3.3.3.3.3.3.3.3.3.*.O.. K I ; ",
". ^ ~ ; 3.3.3.3.3.3.3.3.3.3.3.3.3.3.3.3.3.3.3.3.3.3.*.O.. K I ; ",
". ^ ~ ; 3.3.3.3.3.3.3.3.3.3.3.3.3.3.3.3.3.3.3.3.3.3.*.O.. K I ; ",
". K I ; 3.3.3.3.3.3.3.3.3.3.3.3.3.3.3.3.3.3.3.3.3.*.+.X.. K I ; ",
". k G $ Q Q Q Q Q Q Q Q Q Q Q Q Q Q Q Q Q Q Q Q Q W T I . k G $ ",
". i g = s s s s u 4 a j s s s s s s s s s y 4 h j d s s * t r O ",
". D 1. .] ] ] ] K 3 N w.] ] ] ] ] ] ] ] ] x i D w. .] ] ] ' x @ ",
". 1.8.3.3.3.3.3.X.f -.7.3.3.3.3.3.3.3.3.3.Q j w.3.3.3.3.3.*.~ ; ",
".  .6.3.3.3.3.3.X.e C 6.3.3.3.3.3.3.3.3.3.Q d  .3.3.3.3.3.*.~ ; ",
". ] 3.3.3.3.3.3.X.q m 3.3.3.3.3.3.3.3.3.3.Q s ] 3.3.3.3.3.*.~ ; ",
". ] 3.3.3.3.3.3.X.q m 3.3.3.3.3.3.3.3.3.3.Q s ] 3.3.3.3.3.*.~ ; ",
". ] 3.3.3.3.3.3.X.q m 3.3.3.3.3.3.3.3.3.3.Q s ] 3.3.3.3.3.*.~ ; ",
". ] 3.3.3.3.3.3.X.q m 3.3.3.3.3.3.3.3.3.3.Q s ] 3.3.3.3.3.*.~ ; ",
". ] 3.3.3.3.3.*.X.q m 3.3.3.3.3.3.3.3.3.*.W s ] 3.3.3.3.3.%.Q ; ",
". ] 3.3.3.3.*.$.X.q m 3.3.3.3.3.3.3.3.3.O.I s ] 3.3.3.3.3.$.T ; ",
". K X.X.X.X.X.X.X.7 c X.X.X.X.X.X.X.X.X.X.I u K X.X.X.X.X.X.I ; ",
". 2 4 : f i e q q - < q q q q q q q q q q 9 > 1 q q 0 7 & w , o ",
". M b @ ;.=.Z m m m m m m m m m m m m m m m m m m m n v . M b @ ",
". >.` ; r.9.6.3.3.3.3.3.3.3.3.3.3.3.3.3.3.3.3.3.3.3.*.O.. >.` ; ",
". ^ ~ ; 3.3.3.3.3.3.3.3.3.3.3.3.3.3.3.3.3.3.3.3.3.3.*.O.. K I ; ",
". ^ ~ ; 3.3.3.3.3.3.3.3.3.3.3.3.3.3.3.3.3.3.3.3.3.3.*.O.. K I ; ",
". ^ ~ ; 3.3.3.3.3.3.3.3.3.3.3.3.3.3.3.3.3.3.3.3.3.3.*.O.. K I ; ",
". ^ ~ ; 3.3.3.3.3.3.3.3.3.3.3.3.3.3.3.3.3.3.3.3.3.3.*.O.. K I ; ",
". ^ ~ ; 3.3.3.3.3.3.3.3.3.3.3.3.3.3.3.3.3.3.3.3.3.3.*.O.. K I ; ",
". L T ; *.*.*.*.*.*.*.*.*.*.*.*.*.*.*.*.*.*.*.*.*.%.$.X.. K I ; ",
". l G $ ~ ~ ~ ~ ~ ~ ~ ~ ~ ~ ~ ~ ~ ~ ~ ~ ~ ~ ~ ~ ~ Q T I . k H $ ",
"  $ $ X ; ; ; ; ; ; ; ; ; ; ; ; ; ; ; ; ; ; ; ; ; ; ; ; . @ $   "
};
