/* XPM */
static char *_d7679e3f4f94217ba4d3cb1b24884852UqYA8caqukV3e8N[] = {
/* columns rows colors chars-per-pixel */
"32 32 125 2 ",
"   c None",
".  c black",
"X  c #030200",
"o  c #040200",
"O  c #050200",
"+  c #070400",
"@  c #090500",
"#  c #100A00",
"$  c #140B00",
"%  c #150B00",
"&  c #150C00",
"*  c #160C00",
"=  c #170D00",
"-  c #170E00",
";  c #180D00",
":  c #190E00",
">  c #1D1100",
",  c #1E1100",
"<  c #191603",
"1  c #1D1904",
"2  c #1F0F13",
"3  c #201200",
"4  c #221400",
"5  c #231500",
"6  c #241500",
"7  c #291800",
"8  c #2A1800",
"9  c #301B00",
"0  c #321F01",
"q  c #371F00",
"w  c #201917",
"e  c #2B2706",
"r  c #2D2706",
"t  c #392401",
"y  c #3D2601",
"u  c #312907",
"i  c #352804",
"p  c #382E06",
"a  c #363008",
"s  c #3A3308",
"d  c #352216",
"f  c #362317",
"g  c #301622",
"h  c #302423",
"j  c #302623",
"k  c #4A2C01",
"l  c #533E06",
"z  c #643A00",
"x  c #6A3D00",
"c  c #4B401D",
"v  c #5A431E",
"b  c #5B4F1D",
"n  c #5A4C1F",
"m  c #5A4E1F",
"M  c #6C4604",
"N  c #754300",
"B  c #784600",
"V  c #64571D",
"C  c #77681E",
"Z  c #534720",
"A  c #804A00",
"S  c #824B00",
"D  c #864D00",
"F  c #845403",
"G  c #895603",
"H  c #925400",
"J  c #925500",
"K  c #935C03",
"L  c #905F05",
"P  c #9E5B00",
"I  c #9C5C01",
"U  c #9E5C00",
"Y  c #9D6F09",
"T  c #9F6E08",
"R  c #AA6200",
"E  c #A36804",
"W  c #A46B05",
"Q  c #B27506",
"!  c #B67404",
"~  c #C37100",
"^  c #D0781E",
"/  c #B8545C",
"(  c #CC607A",
")  c #918214",
"_  c #9A8010",
"`  c #978418",
"'  c #A19116",
"]  c #A99717",
"[  c #B79714",
"{  c #B49A15",
"}  c #B5A21C",
"|  c #BBA81A",
" . c #BFAB1A",
".. c #A38426",
"X. c #CA8306",
"o. c #C4A617",
"O. c #C6AF1A",
"+. c #C4B01D",
"@. c #DAB417",
"#. c #E1BA18",
"$. c #E6AC31",
"%. c #E6BA35",
"&. c #E4C01A",
"*. c #E1C21C",
"=. c #EAD11F",
"-. c #E3C922",
";. c #ECCF25",
":. c #EBD320",
">. c #EDC631",
",. c #A68573",
"<. c #AE8C7B",
"1. c #E6846C",
"2. c #D25F82",
"3. c #CF5F92",
"4. c #DF669D",
"5. c #BF988C",
"6. c #CF9A96",
"7. c #CFA597",
"8. c #D5A99B",
"9. c #FF85B5",
"0. c #DFA6A2",
"q. c #DFB2A2",
"w. c #F3B6B0",
"e. c #F3C1B1",
"r. c #FFCBBA",
/* pixels */
"                                                                ",
"                                                                ",
"                                                                ",
"                                                                ",
"                                                                ",
"                                                                ",
"                                                                ",
"                                                                ",
"                                                                ",
"                                                                ",
"                    o $           . #                           ",
"                    $ A .         $ z >                         ",
"                    1  .~ 5       * J ~ .                       ",
"                    2 ( &.T y     f / ^ P 5                     ",
"                    f 2.:.@.T i 1 ..1.$.~ q                     ",
"                  < ` %.:.=.*.O. .-.>.;.~ J 8                   ",
"                .  .:.:.:.:.:.:.:.:.:.:.~ ~ R 6                 ",
"                . | +.V c c c c c c n } ~ ~ R 6                 ",
"                . ] C ,.5.5.5.5.5.5.<.Z ~ ~ R 6                 ",
"                . ' n 7.r.r.r.r.r.r.q.j ~ ~ R 6                 ",
"                . ' n 7.. 7.r.r.. 7.q.j ~ ~ R 6                 ",
"                . ' n 7.w 8.r.r.w 8.q.j ~ ~ R 6                 ",
"                . ' n 6.5.e.r.r.5.w.0.j ~ ~ R 6                 ",
"                . ' v 3.r.r.r.r.r.9.4.g ~ ~ R 6                 ",
"                  . . . . . . . . . . . . . .                   ",
"                      $ . F E E E U K { P >                     ",
"                    * B . [ #.#.#.! M o.~ 5                     ",
"                    ; U .  .:.:.:.Q k W ~ 5                     ",
"                      . .  .:.:.:.X.R 6 . . . . . .             ",
"                        . L l r e t A 6 D G _ ' ' ) u           ",
"                        . N 8     * x 3 9 0 p s s a             ",
"                        . ; @     o * +                         "
};
